%FSLAX25Y25*%
%MOIN*%
G70*
G01*
G75*
G04 Layer_Physical_Order=2*
G04 Layer_Color=16711680*
%ADD10O,0.02362X0.08661*%
%ADD11R,0.05000X0.06000*%
%ADD12R,0.06000X0.05000*%
%ADD13C,0.02000*%
%ADD14R,0.05906X0.05906*%
%ADD15C,0.05906*%
%ADD16R,0.05906X0.05906*%
%ADD17C,0.05000*%
G36*
X143461Y118475D02*
X122022D01*
X121826Y118947D01*
X121032Y119981D01*
X119998Y120775D01*
X119024Y121178D01*
Y121719D01*
X119998Y122123D01*
X121032Y122916D01*
X121421Y123423D01*
X143461D01*
Y118475D01*
D02*
G37*
G36*
X190328Y179277D02*
X190500Y178848D01*
Y109449D01*
X145500D01*
Y123423D01*
X161247D01*
X162991Y121678D01*
X162961Y121449D01*
X163116Y120274D01*
X163569Y119179D01*
X164291Y118239D01*
X165231Y117518D01*
X166325Y117065D01*
X167500Y116910D01*
X168675Y117065D01*
X169769Y117518D01*
X170709Y118239D01*
X171431Y119179D01*
X171884Y120274D01*
X172039Y121449D01*
X171884Y122624D01*
X171431Y123718D01*
X170709Y124658D01*
X169769Y125380D01*
X168675Y125833D01*
X167500Y125988D01*
X167271Y125957D01*
X164640Y128588D01*
X164013Y129069D01*
X163799Y129158D01*
X163283Y129372D01*
X162500Y129475D01*
X150567D01*
X150240Y129975D01*
X150571Y130774D01*
X150726Y131949D01*
X150651Y132520D01*
X157585Y139454D01*
X158047Y139263D01*
Y134047D01*
X167953D01*
Y136936D01*
X168453Y137036D01*
X168674Y136502D01*
X169468Y135468D01*
X170502Y134674D01*
X171707Y134175D01*
X173000Y134004D01*
X174293Y134175D01*
X175498Y134674D01*
X176532Y135468D01*
X177326Y136502D01*
X177825Y137707D01*
X177996Y139000D01*
X177825Y140293D01*
X177326Y141498D01*
X176532Y142532D01*
X175498Y143326D01*
X174293Y143825D01*
X173000Y143995D01*
X171707Y143825D01*
X170502Y143326D01*
X169468Y142532D01*
X168674Y141498D01*
X168453Y140964D01*
X167953Y141064D01*
Y143953D01*
X163124D01*
X162932Y144415D01*
X163467Y144949D01*
X167500D01*
Y145949D01*
X171000D01*
Y149449D01*
Y152949D01*
X167500D01*
Y153949D01*
X165526D01*
Y157098D01*
X165709Y157239D01*
X166431Y158179D01*
X166884Y159274D01*
X167039Y160449D01*
X166884Y161624D01*
X166431Y162718D01*
X165709Y163658D01*
X164769Y164380D01*
X163675Y164833D01*
X162500Y164988D01*
X161325Y164833D01*
X160231Y164380D01*
X159291Y163658D01*
X158569Y162718D01*
X158116Y161624D01*
X157961Y160449D01*
X158116Y159274D01*
X158569Y158179D01*
X159291Y157239D01*
X159474Y157098D01*
Y153949D01*
X157500D01*
Y147660D01*
X157292Y147573D01*
X156665Y147092D01*
X146400Y136828D01*
X145500Y137728D01*
Y145949D01*
X149000D01*
Y149449D01*
Y152949D01*
X145539D01*
Y155423D01*
X145500Y155620D01*
Y161278D01*
X145539Y161475D01*
Y163184D01*
X145500Y163381D01*
Y163582D01*
Y179449D01*
X189870D01*
X190328Y179277D01*
D02*
G37*
G36*
X141773Y132896D02*
X141648Y131949D01*
X141803Y130774D01*
X142134Y129975D01*
X141808Y129475D01*
X121421D01*
X121032Y129981D01*
X119998Y130775D01*
X119464Y130996D01*
X119564Y131496D01*
X122453D01*
Y133423D01*
X141247D01*
X141773Y132896D01*
D02*
G37*
G36*
X143461Y163381D02*
Y163381D01*
Y163381D01*
X143500Y163184D01*
Y161475D01*
X121421D01*
X121032Y161981D01*
X119998Y162775D01*
X119464Y162996D01*
X119564Y163496D01*
X122453D01*
Y173402D01*
X112547D01*
Y163496D01*
X115436D01*
X115536Y162996D01*
X115002Y162775D01*
X113968Y161981D01*
X113174Y160947D01*
X112675Y159742D01*
X112504Y158449D01*
X112675Y157156D01*
X113174Y155951D01*
X113968Y154917D01*
X115002Y154123D01*
X116207Y153624D01*
X117500Y153453D01*
X118793Y153624D01*
X119998Y154123D01*
X121032Y154917D01*
X121421Y155423D01*
X143500D01*
Y152949D01*
X141000D01*
Y149449D01*
Y145949D01*
X143461D01*
Y144949D01*
Y139802D01*
X142961Y139414D01*
X142500Y139475D01*
X122453D01*
Y141402D01*
X112547D01*
Y131496D01*
X115436D01*
X115536Y130996D01*
X115002Y130775D01*
X113968Y129981D01*
X113174Y128947D01*
X112675Y127742D01*
X112504Y126449D01*
X112675Y125156D01*
X113174Y123951D01*
X113968Y122916D01*
X115002Y122123D01*
X115976Y121719D01*
Y121178D01*
X115002Y120775D01*
X113968Y119981D01*
X113174Y118947D01*
X112675Y117742D01*
X112504Y116449D01*
X112675Y115156D01*
X113174Y113951D01*
X113968Y112917D01*
X115002Y112123D01*
X116207Y111624D01*
X117500Y111453D01*
X118793Y111624D01*
X119998Y112123D01*
X120389Y112423D01*
X143461D01*
Y109449D01*
X110500D01*
Y110449D01*
Y179449D01*
X143461D01*
Y163381D01*
D02*
G37*
%LPC*%
G36*
X175500Y148949D02*
X172000D01*
Y145949D01*
X175500D01*
Y148949D01*
D02*
G37*
G36*
X153500D02*
X150000D01*
Y145949D01*
X153500D01*
Y148949D01*
D02*
G37*
G36*
X140000D02*
X136426D01*
X136500Y148772D01*
Y145949D01*
X140000D01*
Y148949D01*
D02*
G37*
G36*
X184964Y119949D02*
X182000D01*
Y116984D01*
X182414Y117039D01*
X183265Y117392D01*
X183996Y117953D01*
X184557Y118684D01*
X184910Y119535D01*
X184964Y119949D01*
D02*
G37*
G36*
X181000D02*
X178036D01*
X178090Y119535D01*
X178443Y118684D01*
X179004Y117953D01*
X179735Y117392D01*
X180586Y117039D01*
X181000Y116984D01*
Y119949D01*
D02*
G37*
G36*
X182000Y123913D02*
Y120949D01*
X184964D01*
X184910Y121362D01*
X184557Y122214D01*
X183996Y122945D01*
X183265Y123506D01*
X182414Y123859D01*
X182000Y123913D01*
D02*
G37*
G36*
X181000D02*
X180586Y123859D01*
X179735Y123506D01*
X179004Y122945D01*
X178443Y122214D01*
X178090Y121362D01*
X178036Y120949D01*
X181000D01*
Y123913D01*
D02*
G37*
G36*
X173000Y159949D02*
X170036D01*
X170090Y159535D01*
X170443Y158684D01*
X171004Y157953D01*
X171735Y157392D01*
X172586Y157039D01*
X173000Y156984D01*
Y159949D01*
D02*
G37*
G36*
X175500Y152949D02*
X172000D01*
Y149949D01*
X175500D01*
Y152949D01*
D02*
G37*
G36*
X176964Y159949D02*
X174000D01*
Y156984D01*
X174414Y157039D01*
X175265Y157392D01*
X175996Y157953D01*
X176557Y158684D01*
X176910Y159535D01*
X176964Y159949D01*
D02*
G37*
G36*
X174000Y163913D02*
Y160949D01*
X176964D01*
X176910Y161363D01*
X176557Y162214D01*
X175996Y162945D01*
X175265Y163506D01*
X174414Y163859D01*
X174000Y163913D01*
D02*
G37*
G36*
X173000D02*
X172586Y163859D01*
X171735Y163506D01*
X171004Y162945D01*
X170443Y162214D01*
X170090Y161363D01*
X170036Y160949D01*
X173000D01*
Y163913D01*
D02*
G37*
G36*
X133000Y152913D02*
Y149449D01*
Y145984D01*
X133414Y146039D01*
X134265Y146392D01*
X134996Y146953D01*
X135557Y147684D01*
X135910Y148535D01*
X135996Y149192D01*
Y149192D01*
X136000Y149219D01*
X136000Y149219D01*
Y149678D01*
X136000Y149679D01*
X135996Y149706D01*
Y149706D01*
X135910Y150363D01*
X135557Y151214D01*
X134996Y151945D01*
X134265Y152506D01*
X133414Y152859D01*
X133000Y152913D01*
D02*
G37*
G36*
X132000Y148949D02*
X129036D01*
X129090Y148535D01*
X129443Y147684D01*
X130004Y146953D01*
X130735Y146392D01*
X131586Y146039D01*
X132000Y145984D01*
Y148949D01*
D02*
G37*
G36*
Y152913D02*
X131586Y152859D01*
X130735Y152506D01*
X130004Y151945D01*
X129443Y151214D01*
X129090Y150363D01*
X129036Y149949D01*
X132000D01*
Y152913D01*
D02*
G37*
G36*
X153500Y152949D02*
X150000D01*
Y149949D01*
X153500D01*
Y152949D01*
D02*
G37*
G36*
X140000D02*
X136500D01*
Y150126D01*
X136426Y149949D01*
X140000D01*
Y152949D01*
D02*
G37*
%LPD*%
D12*
X140500Y149449D02*
D03*
X149500D02*
D03*
X162500D02*
D03*
X171500D02*
D03*
D13*
X162500Y126449D02*
X167500Y121449D01*
X162500Y149449D02*
Y160449D01*
X117500Y126449D02*
X162500D01*
X117500Y136449D02*
X142500D01*
X146187Y132762D01*
X162500Y148262D02*
Y149449D01*
X159191Y144953D02*
X162500Y148262D01*
X158805Y144953D02*
X159191D01*
X146187Y132335D02*
X158805Y144953D01*
X146187Y131949D02*
Y132335D01*
Y132762D01*
X168000Y165949D02*
X173500Y160449D01*
X160222Y165949D02*
X168000D01*
X159722Y165449D02*
X160222Y165949D01*
X152500Y165449D02*
X159722D01*
X145500Y158449D02*
X152500Y165449D01*
X117500Y158449D02*
X145500D01*
X132500Y149449D02*
X140500D01*
X176500Y115449D02*
X181500Y120449D01*
X118500Y115449D02*
X176500D01*
X117500Y116449D02*
X118500Y115449D01*
X171500Y149449D02*
Y158449D01*
X173500Y160449D01*
X181500Y120449D02*
Y152449D01*
X173500Y160449D02*
X181500Y152449D01*
X149500Y149449D02*
Y154449D01*
X145500Y158449D02*
X149500Y154449D01*
D14*
X117500Y136449D02*
D03*
Y168449D02*
D03*
D15*
Y126449D02*
D03*
Y116449D02*
D03*
Y158449D02*
D03*
X173000Y139000D02*
D03*
D16*
X163000D02*
D03*
D17*
X167500Y121449D02*
D03*
X162500Y160449D02*
D03*
X146187Y131949D02*
D03*
X173500Y160449D02*
D03*
X132500Y149449D02*
D03*
X181500Y120449D02*
D03*
M02*
