%FSLAX25Y25*%
%MOIN*%
G70*
G01*
G75*
G04 Layer_Physical_Order=1*
G04 Layer_Color=255*
%ADD10O,0.02362X0.08661*%
%ADD11R,0.05000X0.06000*%
%ADD12R,0.06000X0.05000*%
%ADD13C,0.02000*%
%ADD14R,0.05906X0.05906*%
%ADD15C,0.05906*%
%ADD16R,0.05906X0.05906*%
%ADD17C,0.05000*%
G36*
X129759Y178987D02*
X127360Y176588D01*
X126880Y175962D01*
X126791Y175748D01*
X126577Y175232D01*
X126474Y174449D01*
Y173949D01*
X124500D01*
Y172475D01*
X122453D01*
Y173402D01*
X112547D01*
Y163496D01*
X115436D01*
X115536Y162996D01*
X115002Y162775D01*
X113968Y161981D01*
X113174Y160947D01*
X112675Y159742D01*
X112504Y158449D01*
X112675Y157156D01*
X113174Y155951D01*
X113968Y154917D01*
X115002Y154123D01*
X116207Y153624D01*
X117500Y153453D01*
X118793Y153624D01*
X119998Y154123D01*
X120389Y154423D01*
X124500D01*
Y152949D01*
X130524D01*
X130628Y152732D01*
X130660Y152449D01*
X130004Y151945D01*
X129443Y151214D01*
X129090Y150363D01*
X129036Y149949D01*
X135964D01*
X135910Y150363D01*
X135557Y151214D01*
X134996Y151945D01*
X134340Y152449D01*
X134372Y152732D01*
X134476Y152949D01*
X134500D01*
Y153949D01*
X138000D01*
Y157449D01*
Y160949D01*
X134500D01*
Y161949D01*
X124500D01*
Y160475D01*
X122022D01*
X121826Y160947D01*
X121032Y161981D01*
X119998Y162775D01*
X119464Y162996D01*
X119564Y163496D01*
X122453D01*
Y166423D01*
X124500D01*
Y164949D01*
X134500D01*
Y165949D01*
X138000D01*
Y169449D01*
Y172949D01*
X134500D01*
Y173949D01*
X133932D01*
X133741Y174411D01*
X134753Y175423D01*
X143500D01*
Y135559D01*
X142978Y135158D01*
X142256Y134218D01*
X141803Y133124D01*
X141648Y131949D01*
X141731Y131325D01*
X141401Y130949D01*
X139000D01*
Y127949D01*
X142500D01*
Y128584D01*
X142825Y128695D01*
X143000Y128722D01*
X143500Y128339D01*
Y109449D01*
X110500D01*
Y179449D01*
X129568D01*
X129759Y178987D01*
D02*
G37*
%LPC*%
G36*
X134500Y143949D02*
X124500D01*
Y142475D01*
X120500D01*
X119717Y142372D01*
X119201Y142158D01*
X118987Y142069D01*
X118360Y141588D01*
X118174Y141402D01*
X112547D01*
Y131496D01*
X115436D01*
X115536Y130996D01*
X115002Y130775D01*
X113968Y129981D01*
X113174Y128947D01*
X112675Y127742D01*
X112504Y126449D01*
X112675Y125156D01*
X113174Y123951D01*
X113968Y122916D01*
X115002Y122123D01*
X115976Y121719D01*
Y121178D01*
X115002Y120775D01*
X113968Y119981D01*
X113174Y118947D01*
X112675Y117742D01*
X112504Y116449D01*
X112675Y115156D01*
X113174Y113951D01*
X113968Y112917D01*
X115002Y112123D01*
X116207Y111624D01*
X117500Y111453D01*
X118793Y111624D01*
X119998Y112123D01*
X120389Y112423D01*
X124500D01*
Y110949D01*
X134500D01*
Y111949D01*
X138000D01*
Y115449D01*
Y118949D01*
X134500D01*
Y119949D01*
X124500D01*
Y118475D01*
X122022D01*
X121826Y118947D01*
X121032Y119981D01*
X119998Y120775D01*
X119024Y121178D01*
Y121719D01*
X119998Y122123D01*
X121032Y122916D01*
X121826Y123951D01*
X122022Y124423D01*
X124500D01*
Y122949D01*
X134500D01*
Y123949D01*
X138000D01*
Y127449D01*
Y130949D01*
X134500D01*
Y131949D01*
X124500D01*
Y130475D01*
X120389D01*
X119998Y130775D01*
X119464Y130996D01*
X119564Y131496D01*
X122453D01*
Y136423D01*
X124500D01*
Y134949D01*
X134500D01*
Y135949D01*
X138000D01*
Y139449D01*
Y142949D01*
X134500D01*
Y143949D01*
D02*
G37*
G36*
X142500Y138949D02*
X139000D01*
Y135949D01*
X142500D01*
Y138949D01*
D02*
G37*
G36*
Y126949D02*
X139000D01*
Y123949D01*
X142500D01*
Y126949D01*
D02*
G37*
G36*
Y114949D02*
X139000D01*
Y111949D01*
X142500D01*
Y114949D01*
D02*
G37*
G36*
Y118949D02*
X139000D01*
Y115949D01*
X142500D01*
Y118949D01*
D02*
G37*
G36*
Y142949D02*
X139000D01*
Y139949D01*
X142500D01*
Y142949D01*
D02*
G37*
G36*
Y160949D02*
X139000D01*
Y157949D01*
X142500D01*
Y160949D01*
D02*
G37*
G36*
Y168949D02*
X139000D01*
Y165949D01*
X142500D01*
Y168949D01*
D02*
G37*
G36*
Y172949D02*
X139000D01*
Y169949D01*
X142500D01*
Y172949D01*
D02*
G37*
G36*
X132000Y148949D02*
X129036D01*
X129090Y148535D01*
X129443Y147684D01*
X130004Y146953D01*
X130735Y146392D01*
X131586Y146039D01*
X132000Y145984D01*
Y148949D01*
D02*
G37*
G36*
X135964D02*
X133000D01*
Y145984D01*
X133414Y146039D01*
X134265Y146392D01*
X134996Y146953D01*
X135557Y147684D01*
X135910Y148535D01*
X135964Y148949D01*
D02*
G37*
G36*
X142500Y156949D02*
X139000D01*
Y153949D01*
X142500D01*
Y156949D01*
D02*
G37*
%LPD*%
D10*
X160500Y151551D02*
D03*
X165500D02*
D03*
X170500D02*
D03*
X175500D02*
D03*
X160500Y170449D02*
D03*
X165500D02*
D03*
X170500D02*
D03*
X175500D02*
D03*
D11*
X185000Y161000D02*
D03*
Y170000D02*
D03*
X151000Y161000D02*
D03*
Y170000D02*
D03*
Y148000D02*
D03*
Y139000D02*
D03*
X185000D02*
D03*
Y148000D02*
D03*
D12*
X184000Y115000D02*
D03*
X175000D02*
D03*
Y127000D02*
D03*
X184000D02*
D03*
X129500Y139449D02*
D03*
X138500D02*
D03*
X129500Y127449D02*
D03*
X138500D02*
D03*
X129500Y115449D02*
D03*
X138500D02*
D03*
X129500Y169449D02*
D03*
X138500D02*
D03*
X129500Y157449D02*
D03*
X138500D02*
D03*
X161000Y115000D02*
D03*
X152000D02*
D03*
Y127000D02*
D03*
X161000D02*
D03*
D13*
X165500D02*
X175000D01*
X161000D02*
X165500D01*
X167500Y125000D01*
Y121449D02*
Y125000D01*
X151000Y148000D02*
Y161000D01*
X185000Y148000D02*
Y161000D01*
X138500Y127449D02*
Y139449D01*
Y115449D02*
Y127449D01*
X151000Y170000D02*
X151743D01*
X170500Y141500D02*
Y151551D01*
Y141500D02*
X173000Y139000D01*
X165500Y141500D02*
Y151551D01*
X163000Y139000D02*
X165500Y141500D01*
X151000Y148000D02*
X154000D01*
X163000Y139000D01*
X118500Y115449D02*
X129500D01*
X161000Y127000D02*
Y129000D01*
X175000Y115000D02*
Y127000D01*
X161000Y115000D02*
Y127000D01*
X151000Y139000D02*
X161000Y129000D01*
X118500Y127449D02*
X129500D01*
X117500Y126449D02*
X118500Y127449D01*
X120500Y139449D02*
X129500D01*
X117500Y136449D02*
X120500Y139449D01*
X175000Y127000D02*
Y129000D01*
X185000Y139000D01*
X182000Y148000D02*
X185000D01*
X173000Y139000D02*
X182000Y148000D01*
X185000Y170000D02*
Y174949D01*
X181500Y178449D02*
X185000Y174949D01*
X170500Y175449D02*
X173500Y178449D01*
X181500D01*
X170500Y170449D02*
Y175449D01*
X167500Y178449D02*
X170500Y175449D01*
X118500Y169449D02*
X129500D01*
X117500Y168449D02*
X118500Y169449D01*
X129500D02*
Y174449D01*
X133500Y178449D01*
X151000Y174949D02*
X154500Y178449D01*
X167500D01*
X151000Y170000D02*
Y174949D01*
X147500Y178449D02*
X151000Y174949D01*
X133500Y178449D02*
X147500D01*
X138500Y157449D02*
Y169449D01*
X118500Y157449D02*
X129500D01*
X117500Y158449D02*
X118500Y157449D01*
X165500Y163449D02*
Y170449D01*
X162500Y160449D02*
X165500Y163449D01*
X146187Y131949D02*
X151136Y127000D01*
X152000Y115000D02*
Y127000D01*
X175500Y151551D02*
Y159449D01*
X174500D02*
X175500D01*
X173500Y160449D02*
X174500Y159449D01*
X132500Y149449D02*
X135500D01*
X138500Y152449D01*
Y139449D02*
Y152449D01*
Y157449D01*
X184000Y124949D02*
Y127000D01*
X181500Y122449D02*
X184000Y124949D01*
X181500Y120449D02*
Y122449D01*
X184000Y115000D02*
Y120449D01*
D14*
X117500Y136449D02*
D03*
Y168449D02*
D03*
D15*
Y126449D02*
D03*
Y116449D02*
D03*
Y158449D02*
D03*
X173000Y139000D02*
D03*
D16*
X163000D02*
D03*
D17*
X167500Y121449D02*
D03*
X162500Y160449D02*
D03*
X146187Y131949D02*
D03*
X173500Y160449D02*
D03*
X132500Y149449D02*
D03*
X181500Y120449D02*
D03*
M02*
